<svg xmlns="http://www.w3.org/2000/svg" viewBox="0 0 130 130">
<defs><clipPath id="tile"><rect width="130" height="130" rx="30"/></clipPath></defs>
<g clip-path="url(#tile)"><rect width="130" height="130" fill="#EFEBE4"/>
<g transform="translate(-3.9,-7.8) scale(1.06)" shape-rendering="crispEdges"><g fill="#7A4FD1"><rect x="63" y="7" width="5" height="1"></rect><rect x="59" y="8" width="13" height="1"></rect><rect x="57" y="9" width="18" height="1"></rect><rect x="55" y="10" width="22" height="1"></rect><rect x="54" y="11" width="25" height="1"></rect><rect x="53" y="12" width="27" height="1"></rect><rect x="51" y="13" width="30" height="1"></rect><rect x="50" y="14" width="33" height="1"></rect><rect x="49" y="15" width="35" height="1"></rect><rect x="48" y="16" width="37" height="1"></rect><rect x="47" y="17" width="39" height="1"></rect><rect x="46" y="18" width="41" height="1"></rect><rect x="45" y="19" width="43" height="1"></rect><rect x="44" y="20" width="44" height="1"></rect><rect x="43" y="21" width="46" height="1"></rect><rect x="43" y="22" width="47" height="1"></rect><rect x="42" y="23" width="16" height="1"></rect><rect x="63" y="23" width="4" height="1"></rect><rect x="70" y="23" width="21" height="1"></rect><rect x="0" y="24" width="2" height="1"></rect><rect x="42" y="24" width="15" height="1"></rect><rect x="73" y="24" width="18" height="1"></rect><rect x="0" y="25" width="4" height="1"></rect><rect x="41" y="25" width="15" height="1"></rect><rect x="77" y="25" width="15" height="1"></rect><rect x="0" y="26" width="5" height="1"></rect><rect x="41" y="26" width="13" height="1"></rect><rect x="79" y="26" width="13" height="1"></rect><rect x="0" y="27" width="5" height="1"></rect><rect x="41" y="27" width="9" height="1"></rect><rect x="79" y="27" width="13" height="1"></rect><rect x="0" y="28" width="6" height="1"></rect><rect x="40" y="28" width="7" height="1"></rect><rect x="80" y="28" width="13" height="1"></rect><rect x="0" y="29" width="6" height="1"></rect><rect x="40" y="29" width="7" height="1"></rect><rect x="80" y="29" width="13" height="1"></rect><rect x="0" y="30" width="10" height="1"></rect><rect x="40" y="30" width="6" height="1"></rect><rect x="80" y="30" width="13" height="1"></rect><rect x="0" y="31" width="12" height="1"></rect><rect x="40" y="31" width="6" height="1"></rect><rect x="80" y="31" width="13" height="1"></rect><rect x="0" y="32" width="15" height="1"></rect><rect x="40" y="32" width="6" height="1"></rect><rect x="80" y="32" width="14" height="1"></rect><rect x="0" y="33" width="19" height="1"></rect><rect x="40" y="33" width="6" height="1"></rect><rect x="81" y="33" width="13" height="1"></rect><rect x="0" y="34" width="21" height="1"></rect><rect x="40" y="34" width="6" height="1"></rect><rect x="82" y="34" width="12" height="1"></rect><rect x="0" y="35" width="23" height="1"></rect><rect x="40" y="35" width="6" height="1"></rect><rect x="82" y="35" width="12" height="1"></rect><rect x="0" y="36" width="24" height="1"></rect><rect x="40" y="36" width="6" height="1"></rect><rect x="82" y="36" width="12" height="1"></rect><rect x="0" y="37" width="25" height="1"></rect><rect x="40" y="37" width="6" height="1"></rect><rect x="83" y="37" width="11" height="1"></rect><rect x="0" y="38" width="26" height="1"></rect><rect x="40" y="38" width="6" height="1"></rect><rect x="83" y="38" width="11" height="1"></rect><rect x="0" y="39" width="27" height="1"></rect><rect x="40" y="39" width="5" height="1"></rect><rect x="84" y="39" width="10" height="1"></rect><rect x="0" y="40" width="27" height="1"></rect><rect x="40" y="40" width="5" height="1"></rect><rect x="84" y="40" width="10" height="1"></rect><rect x="0" y="41" width="28" height="1"></rect><rect x="40" y="41" width="5" height="1"></rect><rect x="84" y="41" width="10" height="1"></rect><rect x="0" y="42" width="28" height="1"></rect><rect x="40" y="42" width="5" height="1"></rect><rect x="81" y="42" width="14" height="1"></rect><rect x="0" y="43" width="27" height="1"></rect><rect x="40" y="43" width="4" height="1"></rect><rect x="77" y="43" width="18" height="1"></rect><rect x="0" y="44" width="27" height="1"></rect><rect x="40" y="44" width="4" height="1"></rect><rect x="73" y="44" width="23" height="1"></rect><rect x="0" y="45" width="25" height="1"></rect><rect x="39" y="45" width="5" height="1"></rect><rect x="46" y="45" width="9" height="1"></rect><rect x="65" y="45" width="32" height="1"></rect><rect x="0" y="46" width="24" height="1"></rect><rect x="39" y="46" width="58" height="1"></rect><rect x="0" y="47" width="23" height="1"></rect><rect x="39" y="47" width="59" height="1"></rect><rect x="0" y="48" width="24" height="1"></rect><rect x="38" y="48" width="60" height="1"></rect><rect x="0" y="49" width="28" height="1"></rect><rect x="38" y="49" width="60" height="1"></rect><rect x="0" y="50" width="29" height="1"></rect><rect x="38" y="50" width="60" height="1"></rect><rect x="0" y="51" width="30" height="1"></rect><rect x="37" y="51" width="60" height="1"></rect><rect x="0" y="52" width="31" height="1"></rect><rect x="38" y="52" width="59" height="1"></rect><rect x="0" y="53" width="31" height="1"></rect><rect x="38" y="53" width="27" height="1"></rect><rect x="66" y="53" width="31" height="1"></rect><rect x="0" y="54" width="32" height="1"></rect><rect x="39" y="54" width="10" height="1"></rect><rect x="55" y="54" width="3" height="1"></rect><rect x="60" y="54" width="4" height="1"></rect><rect x="67" y="54" width="8" height="1"></rect><rect x="81" y="54" width="16" height="1"></rect><rect x="0" y="55" width="33" height="1"></rect><rect x="40" y="55" width="7" height="1"></rect><rect x="60" y="55" width="4" height="1"></rect><rect x="67" y="55" width="6" height="1"></rect><rect x="85" y="55" width="12" height="1"></rect><rect x="0" y="56" width="34" height="1"></rect><rect x="40" y="56" width="6" height="1"></rect><rect x="60" y="56" width="4" height="1"></rect><rect x="67" y="56" width="6" height="1"></rect><rect x="86" y="56" width="11" height="1"></rect><rect x="0" y="57" width="34" height="1"></rect><rect x="41" y="57" width="5" height="1"></rect><rect x="60" y="57" width="3" height="1"></rect><rect x="68" y="57" width="5" height="1"></rect><rect x="86" y="57" width="11" height="1"></rect><rect x="0" y="58" width="35" height="1"></rect><rect x="41" y="58" width="5" height="1"></rect><rect x="60" y="58" width="3" height="1"></rect><rect x="68" y="58" width="6" height="1"></rect><rect x="85" y="58" width="12" height="1"></rect><rect x="0" y="59" width="35" height="1"></rect><rect x="42" y="59" width="4" height="1"></rect><rect x="59" y="59" width="4" height="1"></rect><rect x="68" y="59" width="7" height="1"></rect><rect x="83" y="59" width="14" height="1"></rect><rect x="0" y="60" width="35" height="1"></rect><rect x="43" y="60" width="3" height="1"></rect><rect x="58" y="60" width="4" height="1"></rect><rect x="69" y="60" width="28" height="1"></rect><rect x="0" y="61" width="27" height="1"></rect><rect x="32" y="61" width="2" height="1"></rect><rect x="44" y="61" width="4" height="1"></rect><rect x="57" y="61" width="4" height="1"></rect><rect x="69" y="61" width="28" height="1"></rect><rect x="0" y="62" width="24" height="1"></rect><rect x="45" y="62" width="7" height="1"></rect><rect x="54" y="62" width="7" height="1"></rect><rect x="69" y="62" width="28" height="1"></rect><rect x="0" y="63" width="23" height="1"></rect><rect x="47" y="63" width="4" height="1"></rect><rect x="55" y="63" width="6" height="1"></rect><rect x="68" y="63" width="9" height="1"></rect><rect x="87" y="63" width="9" height="1"></rect><rect x="0" y="64" width="23" height="1"></rect><rect x="60" y="64" width="3" height="1"></rect><rect x="67" y="64" width="8" height="1"></rect><rect x="87" y="64" width="9" height="1"></rect><rect x="0" y="65" width="23" height="1"></rect><rect x="60" y="65" width="15" height="1"></rect><rect x="87" y="65" width="8" height="1"></rect><rect x="0" y="66" width="24" height="1"></rect><rect x="64" y="66" width="10" height="1"></rect><rect x="86" y="66" width="8" height="1"></rect><rect x="0" y="67" width="25" height="1"></rect><rect x="65" y="67" width="8" height="1"></rect><rect x="85" y="67" width="9" height="1"></rect><rect x="0" y="68" width="27" height="1"></rect><rect x="68" y="68" width="3" height="1"></rect><rect x="85" y="68" width="9" height="1"></rect><rect x="0" y="69" width="28" height="1"></rect><rect x="85" y="69" width="9" height="1"></rect><rect x="0" y="70" width="29" height="1"></rect><rect x="85" y="70" width="8" height="1"></rect><rect x="0" y="71" width="30" height="1"></rect><rect x="76" y="71" width="1" height="1"></rect><rect x="86" y="71" width="7" height="1"></rect><rect x="0" y="72" width="31" height="1"></rect><rect x="73" y="72" width="8" height="1"></rect><rect x="86" y="72" width="7" height="1"></rect><rect x="0" y="73" width="32" height="1"></rect><rect x="71" y="73" width="10" height="1"></rect><rect x="86" y="73" width="7" height="1"></rect><rect x="0" y="74" width="33" height="1"></rect><rect x="55" y="74" width="7" height="1"></rect><rect x="69" y="74" width="11" height="1"></rect><rect x="86" y="74" width="6" height="1"></rect><rect x="0" y="75" width="34" height="1"></rect><rect x="57" y="75" width="7" height="1"></rect><rect x="67" y="75" width="12" height="1"></rect><rect x="85" y="75" width="7" height="1"></rect><rect x="0" y="76" width="34" height="1"></rect><rect x="58" y="76" width="5" height="1"></rect><rect x="68" y="76" width="10" height="1"></rect><rect x="85" y="76" width="7" height="1"></rect><rect x="0" y="77" width="34" height="1"></rect><rect x="60" y="77" width="1" height="1"></rect><rect x="70" y="77" width="7" height="1"></rect><rect x="84" y="77" width="7" height="1"></rect><rect x="0" y="78" width="34" height="1"></rect><rect x="71" y="78" width="5" height="1"></rect><rect x="84" y="78" width="7" height="1"></rect><rect x="0" y="79" width="35" height="1"></rect><rect x="83" y="79" width="8" height="1"></rect><rect x="0" y="80" width="35" height="1"></rect><rect x="83" y="80" width="8" height="1"></rect><rect x="0" y="81" width="35" height="1"></rect><rect x="82" y="81" width="9" height="1"></rect><rect x="0" y="82" width="36" height="1"></rect><rect x="81" y="82" width="10" height="1"></rect><rect x="0" y="83" width="36" height="1"></rect><rect x="80" y="83" width="11" height="1"></rect><rect x="0" y="84" width="36" height="1"></rect><rect x="79" y="84" width="13" height="1"></rect><rect x="0" y="85" width="37" height="1"></rect><rect x="49" y="85" width="2" height="1"></rect><rect x="78" y="85" width="16" height="1"></rect><rect x="0" y="86" width="37" height="1"></rect><rect x="47" y="86" width="5" height="1"></rect><rect x="77" y="86" width="19" height="1"></rect><rect x="0" y="87" width="37" height="1"></rect><rect x="45" y="87" width="8" height="1"></rect><rect x="76" y="87" width="22" height="1"></rect><rect x="0" y="88" width="37" height="1"></rect><rect x="42" y="88" width="14" height="1"></rect><rect x="75" y="88" width="25" height="1"></rect><rect x="0" y="89" width="57" height="1"></rect><rect x="75" y="89" width="27" height="1"></rect><rect x="0" y="90" width="58" height="1"></rect><rect x="74" y="90" width="29" height="1"></rect><rect x="0" y="91" width="50" height="1"></rect><rect x="51" y="91" width="9" height="1"></rect><rect x="73" y="91" width="32" height="1"></rect><rect x="0" y="92" width="49" height="1"></rect><rect x="52" y="92" width="9" height="1"></rect><rect x="71" y="92" width="37" height="1"></rect><rect x="0" y="93" width="49" height="1"></rect><rect x="53" y="93" width="57" height="1"></rect><rect x="0" y="94" width="49" height="1"></rect><rect x="54" y="94" width="59" height="1"></rect><rect x="0" y="95" width="49" height="1"></rect><rect x="55" y="95" width="60" height="1"></rect><rect x="0" y="96" width="50" height="1"></rect><rect x="56" y="96" width="61" height="1"></rect><rect x="0" y="97" width="50" height="1"></rect><rect x="57" y="97" width="62" height="1"></rect><rect x="0" y="98" width="50" height="1"></rect><rect x="58" y="98" width="62" height="1"></rect><rect x="0" y="99" width="50" height="1"></rect><rect x="59" y="99" width="63" height="1"></rect><rect x="0" y="100" width="51" height="1"></rect><rect x="61" y="100" width="63" height="1"></rect><rect x="0" y="101" width="51" height="1"></rect><rect x="62" y="101" width="63" height="1"></rect><rect x="0" y="102" width="51" height="1"></rect><rect x="64" y="102" width="64" height="1"></rect><rect x="0" y="103" width="52" height="1"></rect><rect x="66" y="103" width="64" height="1"></rect><rect x="0" y="104" width="53" height="1"></rect><rect x="67" y="104" width="63" height="1"></rect><rect x="0" y="105" width="53" height="1"></rect><rect x="70" y="105" width="60" height="1"></rect><rect x="0" y="106" width="54" height="1"></rect><rect x="76" y="106" width="54" height="1"></rect><rect x="0" y="107" width="56" height="1"></rect><rect x="78" y="107" width="52" height="1"></rect><rect x="0" y="108" width="57" height="1"></rect><rect x="78" y="108" width="52" height="1"></rect><rect x="0" y="109" width="58" height="1"></rect><rect x="76" y="109" width="54" height="1"></rect><rect x="0" y="110" width="60" height="1"></rect><rect x="74" y="110" width="56" height="1"></rect><rect x="0" y="111" width="63" height="1"></rect><rect x="71" y="111" width="59" height="1"></rect><rect x="0" y="112" width="130" height="1"></rect><rect x="0" y="113" width="130" height="1"></rect><rect x="0" y="114" width="130" height="1"></rect><rect x="0" y="115" width="130" height="1"></rect><rect x="0" y="116" width="130" height="1"></rect><rect x="0" y="117" width="130" height="1"></rect><rect x="0" y="118" width="130" height="1"></rect><rect x="0" y="119" width="130" height="1"></rect><rect x="0" y="120" width="130" height="1"></rect><rect x="0" y="121" width="130" height="1"></rect><rect x="0" y="122" width="130" height="1"></rect><rect x="0" y="123" width="130" height="1"></rect><rect x="0" y="124" width="130" height="1"></rect><rect x="0" y="125" width="130" height="1"></rect><rect x="0" y="126" width="130" height="1"></rect><rect x="0" y="127" width="130" height="1"></rect><rect x="0" y="128" width="130" height="1"></rect><rect x="0" y="129" width="130" height="1"></rect></g></g></g>
</svg>